<svg xmlns="http://www.w3.org/2000/svg"><symbol id="outline-account-box-24px" viewBox="0 0 24 24"><path fill="none" d="M0 0h24v24H0V0z"/><path d="M19 5v14H5V5h14m0-2H5a2 2 0 0 0-2 2v14a2 2 0 0 0 2 2h14c1.1 0 2-.9 2-2V5c0-1.1-.9-2-2-2zm-7 9c-1.65 0-3-1.35-3-3s1.35-3 3-3 3 1.35 3 3-1.35 3-3 3zm0-4c-.55 0-1 .45-1 1s.45 1 1 1 1-.45 1-1-.45-1-1-1zm6 10H6v-1.53c0-2.5 3.97-3.58 6-3.58s6 1.08 6 3.58V18zm-9.69-2h7.38c-.69-.56-2.38-1.12-3.69-1.12s-3.01.56-3.69 1.12z"/></symbol><symbol id="outline-add-a-photo-24px" viewBox="0 0 24 24"><path fill="none" d="M0 0h24v24H0z"/><path d="M21 6h-3.17L16 4h-6v2h5.12l1.83 2H21v12H5v-9H3v9c0 1.1.9 2 2 2h16c1.1 0 2-.9 2-2V8c0-1.1-.9-2-2-2zM8 14c0 2.76 2.24 5 5 5s5-2.24 5-5-2.24-5-5-5-5 2.24-5 5zm5-3c1.65 0 3 1.35 3 3s-1.35 3-3 3-3-1.35-3-3 1.35-3 3-3zM5 6h3V4H5V1H3v3H0v2h3v3h2z"/></symbol><symbol id="outline-add-circle-outline-24px" viewBox="0 0 24 24"><path fill="none" d="M0 0h24v24H0V0z"/><path d="M13 7h-2v4H7v2h4v4h2v-4h4v-2h-4V7zm-1-5C6.48 2 2 6.48 2 12s4.48 10 10 10 10-4.48 10-10S17.52 2 12 2zm0 18c-4.41 0-8-3.59-8-8s3.59-8 8-8 8 3.59 8 8-3.59 8-8 8z"/></symbol><symbol id="outline-add-photo-alternate-24px" viewBox="0 0 24 24"><path fill="none" d="M0 0h24v24H0V0z"/><path d="M18 20H4V6h9V4H4c-1.1 0-2 .9-2 2v14c0 1.1.9 2 2 2h14c1.1 0 2-.9 2-2v-9h-2v9zm-7.79-3.17l-1.96-2.36L5.5 18h11l-3.54-4.71zM20 4V1h-2v3h-3c.01.01 0 2 0 2h3v2.99c.01.01 2 0 2 0V6h3V4h-3z"/></symbol><symbol id="outline-add-24px" viewBox="0 0 24 24"><path fill="none" d="M0 0h24v24H0V0z"/><path d="M19 13h-6v6h-2v-6H5v-2h6V5h2v6h6v2z"/></symbol><symbol id="outline-art-track-24px" viewBox="0 0 24 24"><path fill="none" d="M0 0h24v24H0V0z"/><path d="M22 13h-8v-2h8v2zm0-6h-8v2h8V7zm-8 10h8v-2h-8v2zm-2-8v6c0 1.1-.9 2-2 2H4c-1.1 0-2-.9-2-2V9c0-1.1.9-2 2-2h6c1.1 0 2 .9 2 2zm-1.5 6l-2.25-3-1.75 2.26-1.25-1.51L3.5 15h7z"/></symbol><symbol id="outline-brightness-high-24px" viewBox="0 0 24 24"><path fill="none" d="M0 0h24v24H0V0z"/><path d="M20 8.69V4h-4.69L12 .69 8.69 4H4v4.69L.69 12 4 15.31V20h4.69L12 23.31 15.31 20H20v-4.69L23.31 12 20 8.69zm-2 5.79V18h-3.52L12 20.48 9.52 18H6v-3.52L3.52 12 6 9.52V6h3.52L12 3.52 14.48 6H18v3.52L20.48 12 18 14.48zM12 6c-3.31 0-6 2.69-6 6s2.69 6 6 6 6-2.69 6-6-2.69-6-6-6zm0 10c-2.21 0-4-1.79-4-4s1.79-4 4-4 4 1.79 4 4-1.79 4-4 4z"/><circle cx="12" cy="12" r="2.5"/></symbol><symbol id="outline-cake-24px" viewBox="0 0 24 24"><path fill="none" d="M0 0h24v24H0V0z"/><path d="M12 6a2 2 0 0 0 2-2c0-.38-.1-.73-.29-1.03L12 0l-1.71 2.97c-.19.3-.29.65-.29 1.03 0 1.1.9 2 2 2zm6 3h-5V7h-2v2H6c-1.66 0-3 1.34-3 3v9c0 .55.45 1 1 1h16c.55 0 1-.45 1-1v-9c0-1.66-1.34-3-3-3zm1 11H5v-3c.9-.01 1.76-.37 2.4-1.01l1.09-1.07 1.07 1.07c1.31 1.31 3.59 1.3 4.89 0l1.08-1.07 1.07 1.07c.64.64 1.5 1 2.4 1.01v3zm0-4.5c-.51-.01-.99-.2-1.35-.57l-2.13-2.13-2.14 2.13c-.74.74-2.03.74-2.77 0L8.48 12.8l-2.14 2.13c-.35.36-.83.56-1.34.57V12c0-.55.45-1 1-1h12c.55 0 1 .45 1 1v3.5z"/></symbol><symbol id="outline-camera-alt-24px" viewBox="0 0 24 24"><path fill="none" d="M0 0h24v24H0V0z"/><path d="M20 4h-3.17L15 2H9L7.17 4H4c-1.1 0-2 .9-2 2v12c0 1.1.9 2 2 2h16c1.1 0 2-.9 2-2V6c0-1.1-.9-2-2-2zm0 14H4V6h4.05l1.83-2h4.24l1.83 2H20v12zM12 7c-2.76 0-5 2.24-5 5s2.24 5 5 5 5-2.24 5-5-2.24-5-5-5zm0 8c-1.65 0-3-1.35-3-3s1.35-3 3-3 3 1.35 3 3-1.35 3-3 3z"/></symbol><symbol id="outline-chat-24px" viewBox="0 0 24 24"><path fill="none" d="M0 0h24v24H0V0z"/><path d="M4 4h16v12H5.17L4 17.17V4m0-2c-1.1 0-1.99.9-1.99 2L2 22l4-4h14c1.1 0 2-.9 2-2V4c0-1.1-.9-2-2-2H4zm2 10h8v2H6v-2zm0-3h12v2H6V9zm0-3h12v2H6V6z"/></symbol><symbol id="outline-check-box-24px" viewBox="0 0 24 24"><path fill="none" d="M0 0h24v24H0V0z"/><path d="M19 3H5c-1.1 0-2 .9-2 2v14c0 1.1.9 2 2 2h14c1.1 0 2-.9 2-2V5c0-1.1-.9-2-2-2zm0 16H5V5h14v14zM17.99 9l-1.41-1.42-6.59 6.59-2.58-2.57-1.42 1.41 4 3.99z"/></symbol><symbol id="outline-check-circle-24px" viewBox="0 0 24 24"><path fill="none" d="M0 0h24v24H0V0z"/><path d="M12 2C6.48 2 2 6.48 2 12s4.48 10 10 10 10-4.48 10-10S17.52 2 12 2zm0 18c-4.41 0-8-3.59-8-8s3.59-8 8-8 8 3.59 8 8-3.59 8-8 8zm4.59-12.42L10 14.17l-2.59-2.58L6 13l4 4 8-8z"/></symbol><symbol id="outline-chevron-left-24px" viewBox="0 0 24 24"><path fill="none" d="M0 0h24v24H0V0z"/><path d="M15.41 7.41L14 6l-6 6 6 6 1.41-1.41L10.83 12l4.58-4.59z"/></symbol><symbol id="outline-chevron-right-24px" viewBox="0 0 24 24"><path fill="none" d="M0 0h24v24H0V0z"/><path d="M10 6L8.59 7.41 13.17 12l-4.58 4.59L10 18l6-6-6-6z"/></symbol><symbol id="outline-clear-24px" viewBox="0 0 24 24"><path fill="none" d="M0 0h24v24H0V0z"/><path d="M19 6.41L17.59 5 12 10.59 6.41 5 5 6.41 10.59 12 5 17.59 6.41 19 12 13.41 17.59 19 19 17.59 13.41 12 19 6.41z"/></symbol><symbol id="outline-close-24px" viewBox="0 0 24 24"><path fill="none" d="M0 0h24v24H0V0z"/><path d="M19 6.41L17.59 5 12 10.59 6.41 5 5 6.41 10.59 12 5 17.59 6.41 19 12 13.41 17.59 19 19 17.59 13.41 12 19 6.41z"/></symbol><symbol id="outline-collections-24px" viewBox="0 0 24 24"><path fill="none" d="M0 0h24v24H0V0z"/><path d="M20 4v12H8V4h12m0-2H8c-1.1 0-2 .9-2 2v12c0 1.1.9 2 2 2h12c1.1 0 2-.9 2-2V4c0-1.1-.9-2-2-2zm-8.5 9.67l1.69 2.26 2.48-3.1L19 15H9zM2 6v14c0 1.1.9 2 2 2h14v-2H4V6H2z"/></symbol><symbol id="outline-comment-24px" viewBox="0 0 24 24"><path fill="none" d="M0 0h24v24H0V0z"/><path d="M21.99 4c0-1.1-.89-2-1.99-2H4c-1.1 0-2 .9-2 2v12c0 1.1.9 2 2 2h14l4 4-.01-18zM20 4v13.17L18.83 16H4V4h16zM6 12h12v2H6zm0-3h12v2H6zm0-3h12v2H6z"/></symbol><symbol id="outline-contacts-24px" viewBox="0 0 24 24"><path fill="none" d="M0 0h24v24H0V0z"/><path d="M20 4H4c-1.1 0-2 .9-2 2v12c0 1.1.9 2 2 2h16c1.1 0 2-.9 2-2V6c0-1.1-.9-2-2-2zm0 14H4V6h16v12zM4 0h16v2H4zm0 22h16v2H4zm8-10a2.5 2.5 0 0 0 0-5 2.5 2.5 0 0 0 0 5zm0-3.5c.55 0 1 .45 1 1s-.45 1-1 1-1-.45-1-1 .45-1 1-1zm5 7.49C17 13.9 13.69 13 12 13s-5 .9-5 2.99V17h10v-1.01zm-8.19-.49c.61-.52 2.03-1 3.19-1 1.17 0 2.59.48 3.2 1H8.81z"/></symbol><symbol id="outline-chrome-reader-mode-24px" viewBox="0 0 24 24"><path fill="none" d="M0 0h24v24H0V0z"/><path d="M21 4H3c-1.1 0-2 .9-2 2v13c0 1.1.9 2 2 2h18c1.1 0 2-.9 2-2V6c0-1.1-.9-2-2-2zM3 19V6h8v13H3zm18 0h-8V6h8v13zm-7-9.5h6V11h-6zm0 2.5h6v1.5h-6zm0 2.5h6V16h-6z"/></symbol><symbol id="outline-dashboard-24px" viewBox="0 0 24 24"><path fill="none" d="M0 0h24v24H0V0z"/><path d="M19 5v2h-4V5h4M9 5v6H5V5h4m10 8v6h-4v-6h4M9 17v2H5v-2h4M21 3h-8v6h8V3zM11 3H3v10h8V3zm10 8h-8v10h8V11zm-10 4H3v6h8v-6z"/></symbol><symbol id="outline-check-box-outline-blank-24px" viewBox="0 0 24 24"><path fill="none" d="M0 0h24v24H0V0z"/><path d="M19 5v14H5V5h14m0-2H5c-1.1 0-2 .9-2 2v14c0 1.1.9 2 2 2h14c1.1 0 2-.9 2-2V5c0-1.1-.9-2-2-2z"/></symbol><symbol id="outline-edit-24px" viewBox="0 0 24 24"><path fill="none" d="M0 0h24v24H0V0z"/><path d="M14.06 9.02l.92.92L5.92 19H5v-.92l9.06-9.06M17.66 3c-.25 0-.51.1-.7.29l-1.83 1.83 3.75 3.75 1.83-1.83a.996.996 0 0 0 0-1.41l-2.34-2.34c-.2-.2-.45-.29-.71-.29zm-3.6 3.19L3 17.25V21h3.75L17.81 9.94l-3.75-3.75z"/></symbol><symbol id="outline-done-24px" viewBox="0 0 24 24"><path fill="none" d="M0 0h24v24H0V0z"/><path d="M9 16.2L4.8 12l-1.4 1.4L9 19 21 7l-1.4-1.4L9 16.2z"/></symbol><symbol id="outline-email-24px" viewBox="0 0 24 24"><path fill="none" d="M0 0h24v24H0V0z"/><path d="M22 6c0-1.1-.9-2-2-2H4c-1.1 0-2 .9-2 2v12c0 1.1.9 2 2 2h16c1.1 0 2-.9 2-2V6zm-2 0l-8 5-8-5h16zm0 12H4V8l8 5 8-5v10z"/></symbol><symbol id="outline-error-24px" viewBox="0 0 24 24"><path d="M12 2C6.48 2 2 6.48 2 12s4.48 10 10 10 10-4.48 10-10S17.52 2 12 2zm1 15h-2v-2h2v2zm0-4h-2V7h2v6z"/></symbol><symbol id="outline-expand-less-24px" viewBox="0 0 24 24"><path fill="none" d="M0 0h24v24H0V0z"/><path d="M12 8l-6 6 1.41 1.41L12 10.83l4.59 4.58L18 14l-6-6z"/></symbol><symbol id="outline-expand-more-24px" viewBox="0 0 24 24"><path fill="none" d="M24 24H0V0h24v24z" opacity=".87"/><path d="M16.59 8.59L12 13.17 7.41 8.59 6 10l6 6 6-6-1.41-1.41z"/></symbol><symbol id="outline-exposure-plus-1-24px" viewBox="0 0 24 24"><path fill="none" d="M0 0h24v24H0V0z"/><path d="M10 7H8v4H4v2h4v4h2v-4h4v-2h-4V7zm10 11h-2V7.38L15 8.4V6.7L19.7 5h.3v13z"/></symbol><symbol id="outline-flare-24px" viewBox="0 0 24 24"><path fill="none" d="M0 0h24v24H0V0z"/><path d="M7 11H1v2h6v-2zm2.17-3.24L7.05 5.64 5.64 7.05l2.12 2.12 1.41-1.41zM13 1h-2v6h2V1zm5.36 6.05l-1.41-1.41-2.12 2.12 1.41 1.41 2.12-2.12zM17 11v2h6v-2h-6zm-5-2c-1.66 0-3 1.34-3 3s1.34 3 3 3 3-1.34 3-3-1.34-3-3-3zm2.83 7.24l2.12 2.12 1.41-1.41-2.12-2.12-1.41 1.41zm-9.19.71l1.41 1.41 2.12-2.12-1.41-1.41-2.12 2.12zM11 23h2v-6h-2v6z"/></symbol><symbol id="outline-description-24px" viewBox="0 0 24 24"><path fill="none" d="M0 0h24v24H0V0z"/><path d="M8 16h8v2H8zm0-4h8v2H8zm6-10H6c-1.1 0-2 .9-2 2v16c0 1.1.89 2 1.99 2H18c1.1 0 2-.9 2-2V8l-6-6zm4 18H6V4h7v5h5v11z"/></symbol><symbol id="outline-forum-24px" viewBox="0 0 24 24"><path fill="none" d="M0 0h24v24H0V0z"/><path d="M15 4v7H5.17L4 12.17V4h11m1-2H3c-.55 0-1 .45-1 1v14l4-4h10c.55 0 1-.45 1-1V3c0-.55-.45-1-1-1zm5 4h-2v9H6v2c0 .55.45 1 1 1h11l4 4V7c0-.55-.45-1-1-1z"/></symbol><symbol id="outline-favorite-24px" viewBox="0 0 24 24"><path fill="none" d="M0 0h24v24H0V0z"/><path d="M12 21.35l-1.45-1.32C5.4 15.36 2 12.28 2 8.5 2 5.42 4.42 3 7.5 3c1.74 0 3.41.81 4.5 2.09C13.09 3.81 14.76 3 16.5 3 19.58 3 22 5.42 22 8.5c0 3.78-3.4 6.86-8.55 11.54L12 21.35z"/></symbol><symbol id="outline-flip-to-back-24px" viewBox="0 0 24 24"><path fill="none" d="M0 0h24v24H0V0z"/><path d="M9 7H7v2h2V7zm0 4H7v2h2v-2zm0-8a2 2 0 0 0-2 2h2V3zm4 12h-2v2h2v-2zm6-12v2h2c0-1.1-.9-2-2-2zm-6 0h-2v2h2V3zM9 17v-2H7a2 2 0 0 0 2 2zm10-4h2v-2h-2v2zm0-4h2V7h-2v2zm0 8c1.1 0 2-.9 2-2h-2v2zM5 7H3v12a2 2 0 0 0 2 2h12v-2H5V7zm10-2h2V3h-2v2zm0 12h2v-2h-2v2z"/></symbol><symbol id="outline-group-24px" viewBox="0 0 24 24"><path fill="none" d="M0 0h24v24H0V0z"/><path d="M9 13.75c-2.34 0-7 1.17-7 3.5V19h14v-1.75c0-2.33-4.66-3.5-7-3.5zM4.34 17c.84-.58 2.87-1.25 4.66-1.25s3.82.67 4.66 1.25H4.34zM9 12c1.93 0 3.5-1.57 3.5-3.5S10.93 5 9 5 5.5 6.57 5.5 8.5 7.07 12 9 12zm0-5c.83 0 1.5.67 1.5 1.5S9.83 10 9 10s-1.5-.67-1.5-1.5S8.17 7 9 7zm7.04 6.81c1.16.84 1.96 1.96 1.96 3.44V19h4v-1.75c0-2.02-3.5-3.17-5.96-3.44zM15 12c1.93 0 3.5-1.57 3.5-3.5S16.93 5 15 5c-.54 0-1.04.13-1.5.35.63.89 1 1.98 1 3.15s-.37 2.26-1 3.15c.46.22.96.35 1.5.35z"/></symbol><symbol id="outline-flip-to-front-24px" viewBox="0 0 24 24"><path fill="none" d="M0 0h24v24H0V0z"/><path d="M3 13h2v-2H3v2zm0 4h2v-2H3v2zm2 4v-2H3a2 2 0 0 0 2 2zM3 9h2V7H3v2zm12 12h2v-2h-2v2zm4-18H9a2 2 0 0 0-2 2v10a2 2 0 0 0 2 2h10c1.1 0 2-.9 2-2V5c0-1.1-.9-2-2-2zm0 12H9V5h10v10zm-8 6h2v-2h-2v2zm-4 0h2v-2H7v2z"/></symbol><symbol id="outline-highlight-off-24px" viewBox="0 0 24 24"><path fill="none" d="M0 0h24v24H0V0z"/><path d="M14.59 8L12 10.59 9.41 8 8 9.41 10.59 12 8 14.59 9.41 16 12 13.41 14.59 16 16 14.59 13.41 12 16 9.41 14.59 8zM12 2C6.47 2 2 6.47 2 12s4.47 10 10 10 10-4.47 10-10S17.53 2 12 2zm0 18c-4.41 0-8-3.59-8-8s3.59-8 8-8 8 3.59 8 8-3.59 8-8 8z"/></symbol><symbol id="outline-help-outline-24px" viewBox="0 0 24 24"><path fill="none" d="M0 0h24v24H0V0z"/><path d="M11 18h2v-2h-2v2zm1-16C6.48 2 2 6.48 2 12s4.48 10 10 10 10-4.48 10-10S17.52 2 12 2zm0 18c-4.41 0-8-3.59-8-8s3.59-8 8-8 8 3.59 8 8-3.59 8-8 8zm0-14c-2.21 0-4 1.79-4 4h2c0-1.1.9-2 2-2s2 .9 2 2c0 2-3 1.75-3 5h2c0-2.25 3-2.5 3-5 0-2.21-1.79-4-4-4z"/></symbol><symbol id="outline-live-help-24px" viewBox="0 0 24 24"><path fill="none" d="M0 0h24v24H0V0z"/><path d="M19 2H5a2 2 0 0 0-2 2v14a2 2 0 0 0 2 2h4l3 3 3-3h4c1.1 0 2-.9 2-2V4c0-1.1-.9-2-2-2zm0 16h-4.83l-.59.59L12 20.17l-1.59-1.59-.58-.58H5V4h14v14zm-8-3h2v2h-2zm1-8c1.1 0 2 .9 2 2 0 2-3 1.75-3 5h2c0-2.25 3-2.5 3-5 0-2.21-1.79-4-4-4S8 6.79 8 9h2c0-1.1.9-2 2-2z"/></symbol><symbol id="outline-local-library-24px" viewBox="0 0 24 24"><path fill="none" d="M0 0h24v24H0V0z"/><path d="M12 9c2.21 0 4-1.79 4-4s-1.79-4-4-4-4 1.79-4 4 1.79 4 4 4zm0-6c1.1 0 2 .9 2 2s-.9 2-2 2-2-.9-2-2 .9-2 2-2zm0 8.55C9.64 9.35 6.48 8 3 8v11c3.48 0 6.64 1.35 9 3.55 2.36-2.19 5.52-3.55 9-3.55V8c-3.48 0-6.64 1.35-9 3.55zm7 5.58c-2.53.34-4.93 1.3-7 2.82a15.2 15.2 0 0 0-7-2.83v-6.95c2.1.38 4.05 1.35 5.64 2.83L12 14.28l1.36-1.27A11.18 11.18 0 0 1 19 10.18v6.95z"/></symbol><symbol id="outline-group-add-24px" viewBox="0 0 24 24"><path fill="none" d="M0 0h24v24H0V0z"/><path d="M5 15v-3h3v-2H5V7H3v3H0v2h3v3zm7-1.25c-2.34 0-7 1.17-7 3.5V19h14v-1.75c0-2.33-4.66-3.5-7-3.5zM7.34 17c.84-.58 2.87-1.25 4.66-1.25s3.82.67 4.66 1.25H7.34zM12 12c1.93 0 3.5-1.57 3.5-3.5S13.93 5 12 5 8.5 6.57 8.5 8.5 10.07 12 12 12zm0-5c.83 0 1.5.67 1.5 1.5S12.83 10 12 10s-1.5-.67-1.5-1.5S11.17 7 12 7zm5 5c1.93 0 3.5-1.57 3.5-3.5S18.93 5 17 5c-.24 0-.48.02-.71.07a5.416 5.416 0 0 1-.02 6.85c.24.05.48.08.73.08zm2.32 2.02c1 .81 1.68 1.87 1.68 3.23V19h3v-1.75c0-1.69-2.44-2.76-4.68-3.23z"/></symbol><symbol id="outline-mood-bad-24px" viewBox="0 0 24 24"><path fill="none" d="M0 0h24v24H0V0z"/><path d="M11.99 2C6.47 2 2 6.48 2 12s4.47 10 9.99 10C17.52 22 22 17.52 22 12S17.52 2 11.99 2zM12 20c-4.42 0-8-3.58-8-8s3.58-8 8-8 8 3.58 8 8-3.58 8-8 8zm3.5-9c.83 0 1.5-.67 1.5-1.5S16.33 8 15.5 8 14 8.67 14 9.5s.67 1.5 1.5 1.5zm-7 0c.83 0 1.5-.67 1.5-1.5S9.33 8 8.5 8 7 8.67 7 9.5 7.67 11 8.5 11zm3.5 2.5c-2.33 0-4.31 1.46-5.11 3.5h10.22c-.8-2.04-2.78-3.5-5.11-3.5z"/></symbol><symbol id="outline-menu-24px" viewBox="0 0 24 24"><path fill="none" d="M0 0h24v24H0V0z"/><path d="M3 18h18v-2H3v2zm0-5h18v-2H3v2zm0-7v2h18V6H3z"/></symbol><symbol id="outline-mood-24px" viewBox="0 0 24 24"><path fill="none" d="M0 0h24v24H0V0z"/><path d="M11.99 2C6.47 2 2 6.48 2 12s4.47 10 9.99 10C17.52 22 22 17.52 22 12S17.52 2 11.99 2zM12 20c-4.42 0-8-3.58-8-8s3.58-8 8-8 8 3.58 8 8-3.58 8-8 8zm3.5-9c.83 0 1.5-.67 1.5-1.5S16.33 8 15.5 8 14 8.67 14 9.5s.67 1.5 1.5 1.5zm-7 0c.83 0 1.5-.67 1.5-1.5S9.33 8 8.5 8 7 8.67 7 9.5 7.67 11 8.5 11zm3.5 6.5c2.33 0 4.31-1.46 5.11-3.5H6.89c.8 2.04 2.78 3.5 5.11 3.5z"/></symbol><symbol id="outline-more-horiz-24px" viewBox="0 0 24 24"><path fill="none" d="M0 0h24v24H0V0z"/><path d="M6 10c-1.1 0-2 .9-2 2s.9 2 2 2 2-.9 2-2-.9-2-2-2zm12 0c-1.1 0-2 .9-2 2s.9 2 2 2 2-.9 2-2-.9-2-2-2zm-6 0c-1.1 0-2 .9-2 2s.9 2 2 2 2-.9 2-2-.9-2-2-2z"/></symbol><symbol id="outline-note-24px" viewBox="0 0 24 24"><path fill="none" d="M0 0h24v24H0V0z"/><path d="M16 4H4c-1.1 0-2 .9-2 2v12.01c0 1.1.9 1.99 2 1.99h16c1.1 0 2-.9 2-2v-8l-6-6zM4 18.01V6h11v5h5v7.01H4z"/></symbol><symbol id="outline-more-vert-24px" viewBox="0 0 24 24"><path fill="none" d="M0 0h24v24H0V0z"/><path d="M12 8c1.1 0 2-.9 2-2s-.9-2-2-2-2 .9-2 2 .9 2 2 2zm0 2c-1.1 0-2 .9-2 2s.9 2 2 2 2-.9 2-2-.9-2-2-2zm0 6c-1.1 0-2 .9-2 2s.9 2 2 2 2-.9 2-2-.9-2-2-2z"/></symbol><symbol id="outline-perm-identity-24px" viewBox="0 0 24 24"><path fill="none" d="M0 0h24v24H0V0z"/><path d="M12 6c1.1 0 2 .9 2 2s-.9 2-2 2-2-.9-2-2 .9-2 2-2m0 9c2.7 0 5.8 1.29 6 2v1H6v-.99c.2-.72 3.3-2.01 6-2.01m0-11C9.79 4 8 5.79 8 8s1.79 4 4 4 4-1.79 4-4-1.79-4-4-4zm0 9c-2.67 0-8 1.34-8 4v3h16v-3c0-2.66-5.33-4-8-4z"/></symbol><symbol id="outline-person-add-24px" viewBox="0 0 24 24"><path fill="none" d="M0 0h24v24H0V0z"/><path d="M15 12c2.21 0 4-1.79 4-4s-1.79-4-4-4-4 1.79-4 4 1.79 4 4 4zm0-6c1.1 0 2 .9 2 2s-.9 2-2 2-2-.9-2-2 .9-2 2-2zm0 8c-2.67 0-8 1.34-8 4v2h16v-2c0-2.66-5.33-4-8-4zm-6 4c.22-.72 3.31-2 6-2 2.7 0 5.8 1.29 6 2H9zm-3-3v-3h3v-2H6V7H4v3H1v2h3v3z"/></symbol><symbol id="outline-playlist-add-24px" viewBox="0 0 24 24"><path fill="none" d="M0 0h24v24H0V0z"/><path d="M14 10H2v2h12v-2zm0-4H2v2h12V6zm4 8v-4h-2v4h-4v2h4v4h2v-4h4v-2h-4zM2 16h8v-2H2v2z"/></symbol><symbol id="outline-radio-button-checked-24px" viewBox="0 0 24 24"><path fill="none" d="M0 0h24v24H0V0z"/><path d="M12 2C6.48 2 2 6.48 2 12s4.48 10 10 10 10-4.48 10-10S17.52 2 12 2zm0 18c-4.42 0-8-3.58-8-8s3.58-8 8-8 8 3.58 8 8-3.58 8-8 8z"/><circle cx="12" cy="12" r="5"/></symbol><symbol id="outline-list-24px" viewBox="0 0 24 24"><g fill="none"><path d="M0 0h24v24H0V0z"/><path d="M0 0h24v24H0V0z" opacity=".87"/></g><path d="M3 13h2v-2H3v2zm0 4h2v-2H3v2zm0-8h2V7H3v2zm4 4h14v-2H7v2zm0 4h14v-2H7v2zM7 7v2h14V7H7zm-4 6h2v-2H3v2zm0 4h2v-2H3v2zm0-8h2V7H3v2zm4 4h14v-2H7v2zm0 4h14v-2H7v2zM7 7v2h14V7H7z"/></symbol><symbol id="outline-refresh-24px" viewBox="0 0 24 24"><path fill="none" d="M0 0h24v24H0V0z"/><path d="M17.65 6.35A7.958 7.958 0 0 0 12 4c-4.42 0-7.99 3.58-7.99 8s3.57 8 7.99 8c3.73 0 6.84-2.55 7.73-6h-2.08A5.99 5.99 0 0 1 12 18c-3.31 0-6-2.69-6-6s2.69-6 6-6c1.66 0 3.14.69 4.22 1.78L13 11h7V4l-2.35 2.35z"/></symbol><symbol id="outline-redo-24px" viewBox="0 0 24 24"><path fill="none" d="M0 0h24v24H0V0z"/><path d="M18.4 10.6C16.55 8.99 14.15 8 11.5 8c-4.65 0-8.58 3.03-9.96 7.22L3.9 16a8.002 8.002 0 0 1 7.6-5.5c1.95 0 3.73.72 5.12 1.88L13 16h9V7l-3.6 3.6z"/></symbol><symbol id="outline-sentiment-satisfied-alt-24px" viewBox="0 0 24 24"><path fill="none" d="M0 0h24v24H0V0z"/><circle cx="15.5" cy="9.5" r="1.5"/><circle cx="8.5" cy="9.5" r="1.5"/><path d="M12 16c-1.48 0-2.75-.81-3.45-2H6.88a5.495 5.495 0 0 0 10.24 0h-1.67c-.69 1.19-1.97 2-3.45 2zm-.01-14C6.47 2 2 6.48 2 12s4.47 10 9.99 10C17.52 22 22 17.52 22 12S17.52 2 11.99 2zM12 20c-4.42 0-8-3.58-8-8s3.58-8 8-8 8 3.58 8 8-3.58 8-8 8z"/></symbol><symbol id="outline-get-app-24px" viewBox="0 0 24 24"><path fill="none" d="M0 0h24v24H0V0z"/><path d="M13 5v6h1.17L12 13.17 9.83 11H11V5h2m2-2H9v6H5l7 7 7-7h-4V3zm4 15H5v2h14v-2z"/></symbol><symbol id="outline-loyalty-24px" viewBox="0 0 24 24"><path fill="none" d="M0 0h24v24H0V0z"/><path d="M21.41 11.58l-9-9C12.05 2.22 11.55 2 11 2H4c-1.1 0-2 .9-2 2v7c0 .55.22 1.05.59 1.42l9 9c.36.36.86.58 1.41.58s1.05-.22 1.41-.59l7-7c.37-.36.59-.86.59-1.41s-.23-1.06-.59-1.42zM13 20.01L4 11V4h7v-.01l9 9-7 7.02z"/><circle cx="6.5" cy="6.5" r="1.5"/><path d="M8.9 12.55c0 .57.23 1.07.6 1.45l3.5 3.5 3.5-3.5a2.053 2.053 0 0 0-2.9-2.9l-.6.6-.6-.59c-.37-.38-.89-.61-1.45-.61-1.13 0-2.05.92-2.05 2.05z"/></symbol><symbol id="outline-share-24px" viewBox="0 0 24 24"><path fill="none" d="M0 0h24v24H0V0z"/><path d="M18 16.08c-.76 0-1.44.3-1.96.77L8.91 12.7c.05-.23.09-.46.09-.7s-.04-.47-.09-.7l7.05-4.11c.54.5 1.25.81 2.04.81 1.66 0 3-1.34 3-3s-1.34-3-3-3-3 1.34-3 3c0 .24.04.47.09.7L8.04 9.81C7.5 9.31 6.79 9 6 9c-1.66 0-3 1.34-3 3s1.34 3 3 3c.79 0 1.5-.31 2.04-.81l7.12 4.16c-.05.21-.08.43-.08.65 0 1.61 1.31 2.92 2.92 2.92s2.92-1.31 2.92-2.92c0-1.61-1.31-2.92-2.92-2.92zM18 4c.55 0 1 .45 1 1s-.45 1-1 1-1-.45-1-1 .45-1 1-1zM6 13c-.55 0-1-.45-1-1s.45-1 1-1 1 .45 1 1-.45 1-1 1zm12 7.02c-.55 0-1-.45-1-1s.45-1 1-1 1 .45 1 1-.45 1-1 1z"/></symbol><symbol id="outline-settings-input-component-24px" viewBox="0 0 24 24"><path fill="none" d="M0 0h24v24H0V0z"/><path d="M5 2c0-.55-.45-1-1-1s-1 .45-1 1v4H1v10c0 1.3.84 2.4 2 2.82V23h2v-4.18C6.16 18.4 7 17.3 7 16V6H5V2zM4 17c-.55 0-1-.45-1-1v-2h2v2c0 .55-.45 1-1 1zm-1-5V8h2v4H3zM13 2c0-.55-.45-1-1-1s-1 .45-1 1v4H9v10c0 1.3.84 2.4 2 2.82V23h2v-4.18c1.16-.42 2-1.52 2-2.82V6h-2V2zm-1 15c-.55 0-1-.45-1-1v-2h2v2c0 .55-.45 1-1 1zm-1-5V8h2v4h-2zm10-6V2c0-.55-.45-1-1-1s-1 .45-1 1v4h-2v10c0 1.3.84 2.4 2 2.82V23h2v-4.18c1.16-.42 2-1.52 2-2.82V6h-2zm-1 11c-.55 0-1-.45-1-1v-2h2v2c0 .55-.45 1-1 1zm-1-5V8h2v4h-2z"/></symbol><symbol id="outline-radio-button-unchecked-24px" viewBox="0 0 24 24"><path fill="none" d="M0 0h24v24H0V0z"/><path d="M12 2C6.48 2 2 6.48 2 12s4.48 10 10 10 10-4.48 10-10S17.52 2 12 2zm0 18c-4.42 0-8-3.58-8-8s3.58-8 8-8 8 3.58 8 8-3.58 8-8 8z"/></symbol><symbol id="outline-text-format-24px" viewBox="0 0 24 24"><path fill="none" d="M0 0h24v24H0V0z"/><path d="M5 17v2h14v-2H5zm4.5-4.2h5l.9 2.2h2.1L12.75 4h-1.5L6.5 15h2.1l.9-2.2zM12 5.98L13.87 11h-3.74L12 5.98z"/></symbol><symbol id="outline-settings-24px" viewBox="0 0 24 24"><path fill="none" d="M0 0h24v24H0V0z"/><path d="M19.43 12.98c.04-.32.07-.64.07-.98 0-.34-.03-.66-.07-.98l2.11-1.65c.19-.15.24-.42.12-.64l-2-3.46a.5.5 0 0 0-.61-.22l-2.49 1c-.52-.4-1.08-.73-1.69-.98l-.38-2.65A.488.488 0 0 0 14 2h-4c-.25 0-.46.18-.49.42l-.38 2.65c-.61.25-1.17.59-1.69.98l-2.49-1a.566.566 0 0 0-.18-.03c-.17 0-.34.09-.43.25l-2 3.46c-.13.22-.07.49.12.64l2.11 1.65c-.04.32-.07.65-.07.98 0 .33.03.66.07.98l-2.11 1.65c-.19.15-.24.42-.12.64l2 3.46a.5.5 0 0 0 .61.22l2.49-1c.52.4 1.08.73 1.69.98l.38 2.65c.03.24.24.42.49.42h4c.25 0 .46-.18.49-.42l.38-2.65c.61-.25 1.17-.59 1.69-.98l2.49 1c.06.02.12.03.18.03.17 0 .34-.09.43-.25l2-3.46c.12-.22.07-.49-.12-.64l-2.11-1.65zm-1.98-1.71c.04.31.05.52.05.73 0 .21-.02.43-.05.73l-.14 1.13.89.7 1.08.84-.7 1.21-1.27-.51-1.04-.42-.9.68c-.43.32-.84.56-1.25.73l-1.06.43-.16 1.13-.2 1.35h-1.4l-.19-1.35-.16-1.13-1.06-.43c-.43-.18-.83-.41-1.23-.71l-.91-.7-1.06.43-1.27.51-.7-1.21 1.08-.84.89-.7-.14-1.13c-.03-.31-.05-.54-.05-.74s.02-.43.05-.73l.14-1.13-.89-.7-1.08-.84.7-1.21 1.27.51 1.04.42.9-.68c.43-.32.84-.56 1.25-.73l1.06-.43.16-1.13.2-1.35h1.39l.19 1.35.16 1.13 1.06.43c.43.18.83.41 1.23.71l.91.7 1.06-.43 1.27-.51.7 1.21-1.07.85-.89.7.14 1.13zM12 8c-2.21 0-4 1.79-4 4s1.79 4 4 4 4-1.79 4-4-1.79-4-4-4zm0 6c-1.1 0-2-.9-2-2s.9-2 2-2 2 .9 2 2-.9 2-2 2z"/></symbol><symbol id="outline-thumb-down-24px" viewBox="0 0 24 24"><path fill="none" d="M0 0h24v24H0V0zm0 0h24v24H0V0z"/><path d="M15 3H6c-.83 0-1.54.5-1.84 1.22l-3.02 7.05c-.09.23-.14.47-.14.73v2c0 1.1.9 2 2 2h6.31l-.95 4.57-.03.32c0 .41.17.79.44 1.06L9.83 23l6.59-6.59c.36-.36.58-.86.58-1.41V5c0-1.1-.9-2-2-2zm0 12l-4.34 4.34L12 14H3v-2l3-7h9v10zm4-12h4v12h-4z"/></symbol><symbol id="outline-supervisor-account-24px" viewBox="0 0 24 24"><path fill="none" d="M0 0h24v24H0V0z"/><path d="M9 12c1.93 0 3.5-1.57 3.5-3.5S10.93 5 9 5 5.5 6.57 5.5 8.5 7.07 12 9 12zm0-5c.83 0 1.5.67 1.5 1.5S9.83 10 9 10s-1.5-.67-1.5-1.5S8.17 7 9 7zm.05 10H4.77c.99-.5 2.7-1 4.23-1 .11 0 .23.01.34.01.34-.73.93-1.33 1.64-1.81-.73-.13-1.42-.2-1.98-.2-2.34 0-7 1.17-7 3.5V19h7v-1.5c0-.17.02-.34.05-.5zm7.45-2.5c-1.84 0-5.5 1.01-5.5 3V19h11v-1.5c0-1.99-3.66-3-5.5-3zm1.21-1.82c.76-.43 1.29-1.24 1.29-2.18a2.5 2.5 0 0 0-5 0c0 .94.53 1.75 1.29 2.18.36.2.77.32 1.21.32s.85-.12 1.21-.32z"/></symbol><symbol id="outline-toggle-on-24px" viewBox="0 0 24 24"><path fill="none" d="M0 0h24v24H0z"/><path d="M17 6H7c-3.31 0-6 2.69-6 6s2.69 6 6 6h10c3.31 0 6-2.69 6-6s-2.69-6-6-6zm0 10H7c-2.21 0-4-1.79-4-4s1.79-4 4-4h10c2.21 0 4 1.79 4 4s-1.79 4-4 4zm0-7c-1.66 0-3 1.34-3 3s1.34 3 3 3 3-1.34 3-3-1.34-3-3-3z"/></symbol><symbol id="outline-toggle-off-24px" viewBox="0 0 24 24"><path fill="none" d="M0 0h24v24H0V0z"/><path d="M17 6H7c-3.31 0-6 2.69-6 6s2.69 6 6 6h10c3.31 0 6-2.69 6-6s-2.69-6-6-6zm0 10H7c-2.21 0-4-1.79-4-4s1.79-4 4-4h10c2.21 0 4 1.79 4 4s-1.79 4-4 4zM7 9c-1.66 0-3 1.34-3 3s1.34 3 3 3 3-1.34 3-3-1.34-3-3-3z"/></symbol><symbol id="outline-thumb-up-24px" viewBox="0 0 24 24"><path fill="none" d="M0 0h24v24H0V0zm0 0h24v24H0V0z"/><path d="M9 21h9c.83 0 1.54-.5 1.84-1.22l3.02-7.05c.09-.23.14-.47.14-.73v-2c0-1.1-.9-2-2-2h-6.31l.95-4.57.03-.32c0-.41-.17-.79-.44-1.06L14.17 1 7.58 7.59C7.22 7.95 7 8.45 7 9v10c0 1.1.9 2 2 2zM9 9l4.34-4.34L12 10h9v2l-3 7H9V9zM1 9h4v12H1z"/></symbol><symbol id="outline-speaker-notes-24px" viewBox="0 0 24 24"><path fill="none" d="M0 0h24v24H0V0z"/><path d="M20 2H4c-1.1 0-1.99.9-1.99 2L2 22l4-4h14c1.1 0 2-.9 2-2V4c0-1.1-.9-2-2-2zm0 14H5.17l-.59.59-.58.58V4h16v12zM6 12h2v2H6zm0-3h2v2H6zm0-3h2v2H6zm4 6h5v2h-5zm0-3h8v2h-8zm0-3h8v2h-8z"/></symbol><symbol id="outline-today-24px" viewBox="0 0 24 24"><path fill="none" d="M0 0h24v24H0V0z"/><path d="M19 3h-1V1h-2v2H8V1H6v2H5a2 2 0 0 0-2 2v14a2 2 0 0 0 2 2h14c1.1 0 2-.9 2-2V5c0-1.1-.9-2-2-2zm0 16H5V9h14v10zm0-12H5V5h14v2zM7 11h5v5H7z"/></symbol><symbol id="outline-undo-24px" viewBox="0 0 24 24"><path fill="none" d="M0 0h24v24H0V0z"/><path d="M12.5 8c-2.65 0-5.05.99-6.9 2.6L2 7v9h9l-3.62-3.62c1.39-1.16 3.16-1.88 5.12-1.88 3.54 0 6.55 2.31 7.6 5.5l2.37-.78C21.08 11.03 17.15 8 12.5 8z"/></symbol></svg>